<svg width="14" height="14" viewBox="0 0 14 14" fill="none" xmlns="http://www.w3.org/2000/svg">
<path fill-rule="evenodd" clip-rule="evenodd" d="M0.39131 11.7205C-0.130111 12.2419 -0.130111 13.0873 0.39131 13.6087C0.912732 14.1301 1.75812 14.1301 2.27954 13.6087L7.00023 8.88801L11.7211 13.6089C12.2425 14.1303 13.0879 14.1303 13.6093 13.6089C14.1308 13.0874 14.1308 12.2421 13.6093 11.7206L8.88847 6.99977L13.6089 2.2793C14.1304 1.75788 14.1304 0.912487 13.6089 0.391066C13.0875 -0.130355 12.2421 -0.130355 11.7207 0.391065L7.00023 5.11154L2.27993 0.391245C1.75851 -0.130176 0.913117 -0.130176 0.391696 0.391245C-0.129726 0.912665 -0.129726 1.75806 0.391695 2.27948L5.112 6.99977L0.39131 11.7205Z" fill="#111111"/>
</svg>
