<?xml version="1.0" encoding="utf-8"?><svg viewBox="0 0 80 80" xmlns="http://www.w3.org/2000/svg" xmlns:xlink="http://www.w3.org/1999/xlink"><style>:root>svg{display:none}:root>svg:target{display:block}</style><svg fill="none" viewBox="0 0 14 14" id="close-modal" xmlns="http://www.w3.org/2000/svg"><path fill-rule="evenodd" clip-rule="evenodd" d="M.391 11.72A1.335 1.335 0 102.28 13.61L7 8.888l4.721 4.72a1.335 1.335 0 101.888-1.887L8.89 7l4.72-4.72A1.335 1.335 0 1011.72.39L7 5.111 2.28.392A1.335 1.335 0 00.392 2.28L5.112 7 .392 11.72z" fill="#111"/></svg><svg fill="none" viewBox="0 0 80 80" id="up-btn" xmlns="http://www.w3.org/2000/svg"><circle cx="40" cy="40" r="28" fill="#fff"/><path d="M0 40a40 40 0 1180 0 40 40 0 01-80 0zm37.5 17.5a2.5 2.5 0 005 0V28.535L53.23 39.27a2.503 2.503 0 103.54-3.54l-15-15a2.501 2.501 0 00-3.54 0l-15 15a2.503 2.503 0 103.54 3.54L37.5 28.535V57.5z" fill="#050505"/></svg></svg>